<svg xmlns="http://www.w3.org/2000/svg" xmlns:xlink="http://www.w3.org/1999/xlink" width="600" height="600">
    <defs>

    </defs>
    <g transform="matrix(1 0 0 1 300 300)">
        <path d="M -229.9388427734375 21.704248428344727 L -179.93882751464844 -28.29578399658203 L -129.93881225585938 21.70421600341797 L -79.93885040283203 -28.29578399658203 L -29.938846588134766 21.70421600341797 L 20.061182022094727 -28.295753479003906 L 70.0611572265625 21.70421600341797 L 120.06118774414062 -28.295814514160156 " stroke-width="14.999999999999996" stroke="#000000" fill="none" class="" transform="matrix(1 0 0 1 54.939 -96.704)" fill-opacity="null" stroke-linejoin="round" stroke-linecap="round" />
        <path d="M -229.9388427734375 21.704261779785156 L -179.93882751464844 -28.295772552490234 L -129.93881225585938 21.70423126220703 L -79.93885040283203 -28.295772552490234 L -29.938846588134766 21.70423126220703 L 20.061182022094727 -28.295738220214844 L 70.0611572265625 21.70423126220703 L 120.06118774414062 -28.295801162719727 " stroke-width="14.999999999999996" stroke="#000000" fill="none" class="" transform="matrix(1 0 0 1 54.939 3.29599)" fill-opacity="null" stroke-linecap="round" stroke-linejoin="round" />
        <path d="M -229.9388427734375 21.704273223876953 L -179.93882751464844 -28.295757293701172 L -129.93881225585938 21.704242706298828 L -79.93885040283203 -28.295757293701172 L -29.938846588134766 21.704242706298828 L 20.061182022094727 -28.29572868347168 L 70.0611572265625 21.704242706298828 L 120.06118774414062 -28.295787811279297 " stroke-width="14.999999999999996" stroke="#000000" fill="none" class="" transform="matrix(1 0 0 1 54.939 103.296)" fill-opacity="null" stroke-linecap="round" stroke-linejoin="round" />
    </g>
</svg>